<svg width="20" height="20" viewBox="0 0 20 20" fill="none" xmlns="http://www.w3.org/2000/svg">
<path d="M2.70825 5.83334C2.70825 4.56769 3.73427 3.54167 4.99992 3.54167C6.26557 3.54167 7.29158 4.56769 7.29158 5.83334C7.29158 7.09899 6.26557 8.125 4.99992 8.125C3.73427 8.125 2.70825 7.09899 2.70825 5.83334Z" fill="#3F4246"/>
<path d="M9.37492 5.83334C9.37492 5.48816 9.65474 5.20834 9.99992 5.20834L16.6666 5.20834C17.0118 5.20834 17.2916 5.48816 17.2916 5.83334C17.2916 6.17852 17.0118 6.45834 16.6666 6.45834L9.99992 6.45834C9.65474 6.45834 9.37492 6.17852 9.37492 5.83334Z" fill="#3F4246"/>
<path d="M14.9999 11.875C13.7343 11.875 12.7083 12.901 12.7083 14.1667C12.7083 15.4323 13.7343 16.4583 14.9999 16.4583C16.2656 16.4583 17.2916 15.4323 17.2916 14.1667C17.2916 12.901 16.2656 11.875 14.9999 11.875Z" fill="#3F4246"/>
<path d="M2.70825 14.1667C2.70825 13.8215 2.98807 13.5417 3.33325 13.5417L9.99992 13.5417C10.3451 13.5417 10.6249 13.8215 10.6249 14.1667C10.6249 14.5118 10.3451 14.7917 9.99992 14.7917L3.33325 14.7917C2.98807 14.7917 2.70825 14.5118 2.70825 14.1667Z" fill="#3F4246"/>
</svg>
