<svg width="44" height="44" viewBox="0 0 44 44" fill="none" xmlns="http://www.w3.org/2000/svg">
<rect width="44" height="44" rx="10" fill="#F5F6F6"/>
<path d="M22.6251 13.6667C22.6251 13.3215 22.3453 13.0417 22.0001 13.0417C21.6549 13.0417 21.3751 13.3215 21.3751 13.6667V19.5C21.3751 19.8452 21.6549 20.125 22.0001 20.125C22.3453 20.125 22.6251 19.8452 22.6251 19.5V13.6667Z" fill="#9D9D9D"/>
<path d="M17.3755 15.8331C17.6514 15.6257 17.7071 15.2339 17.4998 14.958C17.2925 14.682 16.9007 14.6263 16.6247 14.8336C14.4505 16.4669 13.0417 19.0688 13.0417 22C13.0417 26.9476 17.0525 30.9583 22.0001 30.9583C26.9476 30.9583 30.9584 26.9476 30.9584 22C30.9584 19.0906 29.5149 16.4692 27.3797 14.8368C27.1054 14.6272 26.7132 14.6795 26.5036 14.9538C26.2939 15.228 26.3463 15.6202 26.6205 15.8299C28.469 17.243 29.7084 19.5076 29.7084 22C29.7084 26.2572 26.2573 29.7083 22.0001 29.7083C17.7429 29.7083 14.2917 26.2572 14.2917 22C14.2917 19.4787 15.5019 17.2405 17.3755 15.8331Z" fill="#9D9D9D"/>
</svg>
