<svg width="24" height="24" viewBox="0 0 24 24" fill="none" xmlns="http://www.w3.org/2000/svg">
<g clip-path="url(#clip0_1_2462)">
<path d="M11.9943 24C10.3512 24 8.80644 23.6856 7.36015 23.0568C5.91387 22.4356 4.63796 21.572 3.53242 20.4659C2.42688 19.3674 1.55987 18.0947 0.931377 16.6477C0.310459 15.2008 0 13.6515 0 12C0 10.3561 0.310459 8.81061 0.931377 7.36364C1.55987 5.91667 2.4231 4.64015 3.52106 3.53409C4.6266 2.42803 5.90251 1.56439 7.34879 0.943182C8.80265 0.314394 10.3512 0 11.9943 0C13.6375 0 15.1822 0.314394 16.6285 0.943182C18.0823 1.56439 19.3583 2.42803 20.4562 3.53409C21.5618 4.64015 22.4288 5.91667 23.0573 7.36364C23.6858 8.81061 24 10.3561 24 12C24 13.6515 23.6858 15.2008 23.0573 16.6477C22.4288 18.0947 21.5618 19.3674 20.4562 20.4659C19.3583 21.572 18.0861 22.4356 16.6398 23.0568C15.1936 23.6856 13.6451 24 11.9943 24ZM6.42877 12C6.42877 12.3788 6.55372 12.697 6.8036 12.9545C7.06105 13.2045 7.37908 13.3295 7.75769 13.3295H10.6654V16.2386C10.6654 16.6174 10.7903 16.9318 11.0402 17.1818C11.2901 17.4318 11.6081 17.5568 11.9943 17.5568C12.3805 17.5568 12.6985 17.4318 12.9484 17.1818C13.2059 16.9318 13.3346 16.6174 13.3346 16.2386V13.3295H16.2537C16.6323 13.3295 16.9465 13.2045 17.1964 12.9545C17.4463 12.697 17.5712 12.3788 17.5712 12C17.5712 11.6061 17.4463 11.2841 17.1964 11.0341C16.9465 10.7765 16.6323 10.6477 16.2537 10.6477H13.3346V7.73864C13.3346 7.35985 13.2059 7.04545 12.9484 6.79545C12.6985 6.53788 12.3805 6.40909 11.9943 6.40909C11.6081 6.40909 11.2901 6.53788 11.0402 6.79545C10.7903 7.04545 10.6654 7.35985 10.6654 7.73864V10.6477H7.75769C7.37908 10.6477 7.06105 10.7765 6.8036 11.0341C6.55372 11.2841 6.42877 11.6061 6.42877 12Z" fill="#2D69E0"/>
</g>
<defs>
<clipPath id="clip0_1_2462">
<rect width="24" height="24" fill="white"/>
</clipPath>
</defs>
</svg>
