<svg width="20" height="20" viewBox="0 0 20 20" fill="none" xmlns="http://www.w3.org/2000/svg">
<path fill-rule="evenodd" clip-rule="evenodd" d="M1.66675 8.33333C1.66675 4.19119 5.02461 0.833328 9.16675 0.833328C13.3089 0.833328 16.6667 4.19119 16.6667 8.33333C16.6667 12.4755 13.3089 15.8333 9.16675 15.8333C5.02461 15.8333 1.66675 12.4755 1.66675 8.33333ZM8.29888 3.28683C8.35288 3.62775 8.12027 3.9479 7.77935 4.0019C6.26389 4.24193 5.07535 5.43047 4.83532 6.94593C4.78132 7.28685 4.46117 7.51946 4.12025 7.46546C3.77932 7.41146 3.54671 7.09131 3.60071 6.75038C3.92545 4.70007 5.53349 3.09203 7.5838 2.76729C7.92473 2.71329 8.24488 2.9459 8.29888 3.28683Z" fill="#3F4246"/>
<path d="M15.3915 14.5581C15.6356 14.314 16.0313 14.314 16.2754 14.5581L19.6086 17.8913C19.8527 18.1354 19.8527 18.5312 19.6086 18.7752C19.3645 19.0193 18.9688 19.0193 18.7247 18.7752L15.3915 15.4419C15.1474 15.1979 15.1474 14.8021 15.3915 14.5581Z" fill="#3F4246"/>
</svg>
